<svg xmlns="http://www.w3.org/2000/svg" width="162.187" height="34.93"><path d="M.006.68v33.6h13.44a15.55 15.55 0 0 0 11.64-4.83 17.661 17.661 0 0 0 0-23.95A15.541 15.541 0 0 0 13.446.68H.006zm7.68 26.2V8.07h5.76a8.565 8.565 0 0 1 6.456 2.57 10.7 10.7 0 0 1 0 13.68 8.558 8.558 0 0 1-6.456 2.56h-5.76zm34.56-5.95h12v-7.29h-12V8.07h13.2V.68h-20.88v33.6h21.12v-7.4h-13.44v-5.95zm36.1 13.35L89.29.68h-8.4L73.45 25.4 66.01.68h-8.4l10.944 33.6h9.792zm14.3 0h7.68V.68h-7.68v33.6zm38.352-1.42a15.439 15.439 0 0 0 6-5.69l-6.624-3.84a7.5 7.5 0 0 1-3.144 3.03 9.823 9.823 0 0 1-4.632 1.1 9.473 9.473 0 0 1-7.128-2.74 11.184 11.184 0 0 1 0-14.49 9.473 9.473 0 0 1 7.128-2.74 9.787 9.787 0 0 1 4.608 1.08 7.581 7.581 0 0 1 3.168 3.05l6.624-3.84a15.8 15.8 0 0 0-6.048-5.69A17.228 17.228 0 0 0 122.598 0a17.477 17.477 0 1 0 0 34.95 17.324 17.324 0 0 0 8.399-2.09zm17.76-11.93h12v-7.29h-12V8.07h13.2V.68h-20.88v33.6h21.12v-7.4h-13.44v-5.95z" fill="#ffc600" fill-rule="evenodd"/></svg>